PathFileType	4	(X/Y/Z)	c:/Users/goper/Files/vsCode/490R/osim_files/C15/C15_Static03.trc
DataRate	CameraRate	NumFrames	NumMarkers	Units                	OrigDataRate	OrigDataStartFrame	OrigNumFrames
250.00	250.00	7	36	mm	250.0	558	1115
                Frame#	Time	LPSIS			LASIS			LTH1			LTH2			LTH3			LTH4			LLFE			LMFE			LSH1			LSH2			LSH3			LSH4			LLMAL			LMMAL			LCAL			LMTP5			LTOE			LMTP1			RPSIS			RASIS			RTH1			RTH2			RTH3			RTH4			RLFE			RMFE			RSH1			RSH2			RSH3			RSH4			RLMAL			RMMAL			RCAL			RMTP1			RTOE			RMTP5		
		X1	Y1	Z1	X2	Y2	Z2	X3	Y3	Z3	X4	Y4	Z4	X5	Y5	Z5	X6	Y6	Z6	X7	Y7	Z7	X8	Y8	Z8	X9	Y9	Z9	X10	Y10	Z10	X11	Y11	Z11	X12	Y12	Z12	X13	Y13	Z13	X14	Y14	Z14	X15	Y15	Z15	X16	Y16	Z16	X17	Y17	Z17	X18	Y18	Z18	X19	Y19	Z19	X20	Y20	Z20	X21	Y21	Z21	X22	Y22	Z22	X23	Y23	Z23	X24	Y24	Z24	X25	Y25	Z25	X26	Y26	Z26	X27	Y27	Z27	X28	Y28	Z28	X29	Y29	Z29	X30	Y30	Z30	X31	Y31	Z31	X32	Y32	Z32	X33	Y33	Z33	X34	Y34	Z34	X35	Y35	Z35	X36	Y36	Z36

558	2.22800	-418.50784	1028.18469	401.77417	-255.79578	1008.05389	329.62787	-345.65765	634.41595	250.55765	-349.54865	587.95148	262.67752	-293.73938	637.47455	253.23048	-296.15192	592.17487	259.87158	-333.73816	499.93500	276.90948	-328.77954	476.39951	395.92041	-404.96643	396.12195	259.23297	-408.33298	353.76321	250.10362	-343.71512	387.84204	256.44958	-354.68289	345.11371	247.55676	-402.42419	85.09853	288.59146	-382.33813	104.05701	379.47714	-463.55551	58.33683	331.66641	-280.90338	35.77888	263.41147	-224.47504	58.58528	326.46112	-260.25070	38.79654	381.76187	-412.08838	1028.85742	521.67047	-255.24153	1002.84259	583.94257	-330.12387	641.93982	652.52789	-330.99133	595.08331	646.90186	-270.83905	636.20935	638.82062	-279.75186	590.21558	638.12000	-328.53522	497.06982	624.46216	-346.07376	473.84036	508.31876	-419.07730	400.16241	649.47699	-421.40250	357.01804	656.67798	-357.61154	388.56104	651.39209	-370.06989	348.51480	659.25415	-416.26544	84.69508	616.76184	-386.94177	102.88816	528.90002	-476.88901	58.62901	572.52832	-273.41129	37.58393	534.92621	-239.20134	55.55714	588.43811	-299.45670	30.99461	654.02332
559	2.23200	-418.53061	1028.19397	401.79623	-255.81589	1008.06238	329.61261	-345.66992	634.39191	250.57111	-349.55417	587.91144	262.64191	-293.75497	637.48254	253.22092	-296.18170	592.17334	259.86996	-333.73825	499.92493	276.90900	-328.82562	476.41269	395.91080	-404.97842	396.13324	259.25909	-408.31879	353.76709	250.11868	-343.73303	387.86813	256.42349	-354.69946	345.13327	247.54926	-402.42151	85.09422	288.58875	-382.32584	104.09995	379.48056	-463.58286	58.30447	331.65012	-280.82614	35.93971	263.28629	-224.44270	58.63529	326.43790	-260.25897	38.82011	381.75049	-412.07471	1028.87830	521.65680	-255.21477	1002.89709	583.91565	-330.14511	641.98993	652.51929	-330.98096	595.15619	646.91089	-270.80130	636.26489	638.79041	-279.74170	590.25580	638.09290	-328.52448	497.11557	624.46924	-346.06653	473.84784	508.33267	-419.09964	400.20718	649.46655	-421.44165	357.08182	656.63348	-357.57855	388.60629	651.38190	-370.07797	348.55670	659.23914	-416.29724	84.73920	616.73889	-386.94815	102.89744	528.89282	-476.91373	58.69310	572.48785	-273.50473	37.46147	534.81268	-239.19939	55.59405	588.42188	-299.48050	31.01966	654.00800
560	2.23600	-418.53751	1028.17810	401.78983	-255.83871	1008.08380	329.60141	-345.69449	634.41278	250.57352	-350.65771	587.18732	263.73499	-293.77844	637.49017	253.20499	-296.15289	592.22791	259.84348	-333.73822	499.93411	276.91028	-328.84647	476.41696	395.89188	-404.98434	396.15863	259.26526	-408.34314	353.77725	250.10959	-343.76245	387.87280	256.40787	-354.68808	345.15881	247.52228	-402.40216	85.09235	288.59384	-382.34576	104.13128	379.43765	-463.57764	58.29245	331.68121	-280.82767	35.97917	263.26404	-224.44421	58.67593	326.38550	-260.25717	38.85936	381.71936	-412.10437	1028.89478	521.64392	-255.22659	1002.94080	583.87531	-330.18036	642.01544	652.44830	-331.02826	595.20880	646.86493	-270.79318	636.32233	638.74353	-279.73712	590.31000	638.06335	-328.48544	497.22766	624.45270	-346.09052	473.85376	508.33383	-419.10989	400.23944	649.43347	-421.47058	357.13629	656.58978	-357.55786	388.65634	651.32733	-370.08371	348.60324	659.20569	-416.28940	84.78970	616.68353	-386.95062	102.93185	528.87720	-476.94687	58.73700	572.44708	-273.48996	37.52728	534.74396	-239.16124	55.64225	588.38470	-299.46265	31.06591	653.97473
561	2.24000	-418.55087	1028.17358	401.78958	-255.84395	1008.06873	329.60431	-345.70465	634.43170	250.56506	-349.59912	587.93506	262.70483	-293.79437	637.50177	253.22095	-296.18579	592.21906	259.84045	-333.74741	499.93994	276.89783	-328.87869	476.41833	395.91122	-405.08368	396.29562	259.09842	-408.36481	353.77078	250.11696	-343.75006	387.90164	256.43762	-354.69421	345.16696	247.54684	-402.40207	85.09530	288.57993	-382.34927	104.14658	379.43094	-463.56790	58.31050	331.62976	-280.82214	36.01612	263.24847	-224.43512	58.69574	326.38446	-260.25391	38.87606	381.72070	-412.13568	1028.92371	521.62714	-255.20660	1002.99829	583.87714	-330.15961	642.04413	652.43982	-331.02972	595.26019	646.85693	-270.77686	636.34265	638.72791	-279.72330	590.31781	638.05243	-328.46341	497.27405	624.42371	-346.09003	473.86456	508.32175	-419.13394	400.26044	649.41028	-421.48978	357.17911	656.56293	-357.55060	388.70059	651.31781	-370.07089	348.61267	659.19995	-416.28949	84.83782	616.67682	-386.94843	102.93422	528.87085	-476.98804	58.79675	572.40131	-273.44562	37.59989	534.73511	-239.16222	55.67698	588.38025	-299.48300	31.08560	653.96594
562	2.24400	-418.55209	1028.16650	401.78049	-255.86272	1008.09100	329.59921	-345.73080	634.43750	250.57930	-349.63541	587.96765	262.70224	-293.79007	637.51660	253.22359	-296.17984	592.21527	259.86472	-333.73956	499.95541	276.87891	-328.89783	476.40240	395.91272	-405.10678	396.31561	259.09937	-408.35297	353.78470	250.11041	-343.76624	387.94113	256.40302	-354.70129	345.19449	247.53894	-402.41663	85.11600	288.58185	-382.35605	104.16574	379.42172	-463.53741	58.35543	331.63275	-280.90683	35.82937	263.37390	-224.45450	58.71041	326.37842	-260.25421	38.90993	381.69885	-412.17557	1028.94446	521.62164	-255.20544	1003.02722	583.86304	-330.14319	642.05859	652.45807	-331.03555	595.26996	646.82373	-270.77078	636.37347	638.72015	-279.70996	590.36243	638.03802	-328.44733	497.30103	624.42767	-346.07138	473.86630	508.30353	-419.14435	400.27164	649.39453	-421.50281	357.17838	656.55096	-357.53247	388.72031	651.31580	-370.08499	348.63910	659.19312	-416.27991	84.87127	616.65997	-386.95810	102.96574	528.86865	-477.00226	58.83480	572.35815	-273.42758	37.65233	534.70636	-239.14445	55.74677	588.35693	-299.47955	31.08669	653.95868
563	2.24800	-418.51559	1028.14600	401.78537	-255.84048	1008.07349	329.60263	-345.73230	634.46600	250.55833	-349.58463	588.01086	262.66220	-293.78970	637.51764	253.21643	-296.18164	592.24780	259.87241	-333.75067	499.96597	276.88205	-328.84930	476.38580	395.92395	-404.98941	396.23459	259.25067	-408.33633	353.79205	250.11673	-343.76297	387.94724	256.42596	-354.71292	345.17810	247.53001	-402.39197	85.12493	288.57565	-382.32593	104.15521	379.41513	-463.56897	58.37440	331.64294	-280.89618	35.83979	263.37430	-224.45267	58.71356	326.38922	-260.21539	38.91357	381.69135	-412.14618	1028.94299	521.61359	-255.18329	1003.01605	583.83801	-330.15045	642.04071	652.40710	-331.00864	595.25140	646.82019	-270.74414	636.36603	638.71960	-279.70081	590.36285	638.03497	-328.44028	497.28653	624.41235	-346.08417	473.87854	508.27939	-419.10977	400.25336	649.39343	-421.49692	357.14941	656.55029	-357.51636	388.71872	651.31403	-370.04550	348.64044	659.19867	-416.24875	84.84439	616.62787	-386.92673	102.96107	528.86139	-477.00180	58.84785	572.33356	-273.39426	37.65033	534.70490	-239.13023	55.74243	588.35339	-299.45944	31.10376	653.95093
564	2.25200	-418.50119	1028.12854	401.79788	-255.86031	1008.04968	329.62549	-345.73398	634.49658	250.53789	-349.60031	588.07159	262.70389	-293.79327	637.51874	253.25281	-296.19135	592.22711	259.88235	-333.77512	499.98608	276.87997	-328.81702	476.36459	395.94284	-404.98947	396.27356	259.24258	-408.36652	353.79868	250.11293	-343.75919	387.93707	256.46307	-354.69272	345.17426	247.56578	-402.38824	85.13120	288.58582	-382.31653	104.14363	379.43195	-463.57574	58.38119	331.68915	-280.80331	36.02702	263.22864	-224.44055	58.69016	326.41428	-260.22104	38.89404	381.72723	-412.04102	1028.92505	521.65796	-255.18532	1002.98376	583.87500	-330.05255	642.01532	652.47736	-330.99933	595.19781	646.83124	-270.79208	636.31445	638.74805	-279.68689	590.33783	638.07019	-328.46265	497.18356	624.40656	-346.10034	473.87442	508.28412	-419.05872	400.23026	649.43066	-421.44345	357.10681	656.60333	-357.54788	388.65872	651.35864	-370.06601	348.58765	659.23291	-416.21902	84.79161	616.65039	-386.93832	102.94197	528.87207	-476.96368	58.78434	572.35590	-273.41208	37.61117	534.75098	-239.36324	55.54738	588.31378	-299.44781	31.08363	653.96539
